# xmcd
#
# Track frame offsets: 
#        150
#        12252
#        33975
#        48805
#        58440
#        71587
#        83652
#        98480
#        111700
#        126440
#        144780
#        161097
#        175490
#        189547
#        209567
#        225035
#        238552
#        252070
#
# Disc length: 3531 seconds
#
# Revision: 6
# Processed by: cddbd v1.5.2PL0 Copyright (c) Steve Scherf et al.
# Submitted via: ExactAudioCopy v0.99pb5
#
DISCID=f30dc912
DTITLE=Various Artist - The History Of Country Music - The Eighties - CD 1
DYEAR=1993
DGENRE=Country
TTITLE0=Dolly Parton - 9 to 5
TTITLE1=Willie Nelson - City of New Orleans
TTITLE2=Alabama - Love in the first degree
TTITLE3=Waylon Jennings - Theme from The Dukes Of Hazzard (Good ol' bo
TTITLE3=ys)
TTITLE4=Kendalls - Thank God for the radio
TTITLE5=Ronnie Milsap - My heart
TTITLE6=Jerry Reed - She got the goldmine (I got the shaft)
TTITLE7=Mickey Gilley - True love ways
TTITLE8=Rosanne Cash - Seven year ache
TTITLE9=Don Williams - I believe in you
TTITLE10=Michael Johnson - Give me wings
TTITLE11=George Strait - You look so good in love
TTITLE12=Desert Rose Band - He's back and I'm blue
TTITLE13=Kathy Mattea - Goin' gone
TTITLE14=B.J. Thomas - Whatever happened to old fashioned love
TTITLE15=George Strait - A fire I can't put out
TTITLE16=Ricky Skaggs - I wouldn't change you if I could
TTITLE17=O'Kanes - Can't stop my heart from loving you
EXTD=
EXTT0=
EXTT1=
EXTT2=
EXTT3=
EXTT4=
EXTT5=
EXTT6=
EXTT7=
EXTT8=
EXTT9=
EXTT10=
EXTT11=
EXTT12=
EXTT13=
EXTT14=
EXTT15=
EXTT16=
EXTT17=
PLAYORDER=
